<svg width="49" height="49" viewBox="0 0 49 49" fill="none" xmlns="http://www.w3.org/2000/svg">
<path d="M0 24.5C0 10.969 10.969 0 24.5 0V0C38.031 0 49 10.969 49 24.5V24.5C49 38.031 38.031 49 24.5 49V49C10.969 49 0 38.031 0 24.5V24.5Z" fill="#ADE9D4"/>
<path fill-rule="evenodd" clip-rule="evenodd" d="M25.6481 14C25.6481 13.4477 25.2004 13 24.6481 13C24.0959 13 23.6481 13.4477 23.6481 14V23.6481H14C13.4477 23.6481 13 24.0959 13 24.6481C13 25.2004 13.4477 25.6481 14 25.6481H23.6481V35.2963C23.6481 35.8486 24.0959 36.2963 24.6481 36.2963C25.2004 36.2963 25.6481 35.8486 25.6481 35.2963V25.6481H35.2963C35.8486 25.6481 36.2963 25.2004 36.2963 24.6481C36.2963 24.0959 35.8486 23.6481 35.2963 23.6481H25.6481V14Z" fill="#4C4C4C"/>
</svg>
