<svg width="68" height="68" viewBox="0 0 68 68" fill="none" xmlns="http://www.w3.org/2000/svg">
<circle cx="34" cy="34" r="34" fill="white"/>
<g clip-path="url(#clip0_73_57)">
<path d="M17 23.3125C17 22.5852 17.5944 22 18.3333 22H20.8611C22.0833 22 23.1667 22.7 23.6722 23.75H46.5056C47.9667 23.75 49.0333 25.1172 48.65 26.5063L46.3722 34.8352C45.9 36.5523 44.3167 37.75 42.5111 37.75H26.4833L26.7833 39.3086C26.9056 39.9266 27.4556 40.375 28.0944 40.375H44.1111C44.85 40.375 45.4444 40.9602 45.4444 41.6875C45.4444 42.4148 44.85 43 44.1111 43H28.0944C26.1722 43 24.5222 41.6547 24.1667 39.8008L21.3 24.9805C21.2611 24.7727 21.0778 24.625 20.8611 24.625H18.3333C17.5944 24.625 17 24.0398 17 23.3125ZM24.1111 47.375C24.1111 47.0303 24.1801 46.6889 24.3141 46.3705C24.4481 46.052 24.6445 45.7626 24.8922 45.5188C25.1398 45.2751 25.4338 45.0817 25.7573 44.9498C26.0808 44.8179 26.4276 44.75 26.7778 44.75C27.128 44.75 27.4747 44.8179 27.7983 44.9498C28.1218 45.0817 28.4158 45.2751 28.6634 45.5188C28.911 45.7626 29.1074 46.052 29.2415 46.3705C29.3755 46.6889 29.4444 47.0303 29.4444 47.375C29.4444 47.7197 29.3755 48.0611 29.2415 48.3795C29.1074 48.698 28.911 48.9874 28.6634 49.2312C28.4158 49.4749 28.1218 49.6683 27.7983 49.8002C27.4747 49.9321 27.128 50 26.7778 50C26.4276 50 26.0808 49.9321 25.7573 49.8002C25.4338 49.6683 25.1398 49.4749 24.8922 49.2312C24.6445 48.9874 24.4481 48.698 24.3141 48.3795C24.1801 48.0611 24.1111 47.7197 24.1111 47.375ZM42.7778 44.75C43.485 44.75 44.1633 45.0266 44.6634 45.5188C45.1635 46.0111 45.4444 46.6788 45.4444 47.375C45.4444 48.0712 45.1635 48.7389 44.6634 49.2312C44.1633 49.7234 43.485 50 42.7778 50C42.0705 50 41.3923 49.7234 40.8922 49.2312C40.3921 48.7389 40.1111 48.0712 40.1111 47.375C40.1111 46.6788 40.3921 46.0111 40.8922 45.5188C41.3923 45.0266 42.0705 44.75 42.7778 44.75Z" fill="#73D2B0"/>
</g>
<defs>
<clipPath id="clip0_73_57">
<rect width="32" height="28" fill="white" transform="translate(17 22)"/>
</clipPath>
</defs>
</svg>
