<svg width="268" height="88" viewBox="0 0 268 88" fill="none" xmlns="http://www.w3.org/2000/svg">
<g clip-path="url(#clip0_69_50)">
<path d="M3.78221 35.3762V84.6626C3.78221 84.6626 1.0998 43.3859 9.14704 32.7063C21.285 1.12137 109.738 -18.0218 96.3255 83.4345" stroke="#73D2B0" stroke-width="5" stroke-linecap="round" stroke-linejoin="round"/>
<path d="M135.221 36.7112C134.899 37.432 128.756 52.4502 144.609 59.4053C168.603 69.9381 187.528 48.7257 186.186 40.716" stroke="#73D2B0" stroke-width="5" stroke-linecap="round" stroke-linejoin="round"/>
<path d="M262.635 22.6942V84.102" stroke="#73D2B0" stroke-width="5" stroke-linecap="round" stroke-linejoin="round"/>
<path d="M262.97 9.34467C265.378 9.34467 267.329 7.40221 267.329 5.00607C267.329 2.60993 265.378 0.66748 262.97 0.66748C260.563 0.66748 258.612 2.60993 258.612 5.00607C258.612 7.40221 260.563 9.34467 262.97 9.34467Z" fill="#73D2B0" stroke="#73D2B0" stroke-miterlimit="10"/>
</g>
<defs>
<clipPath id="clip0_69_50">
<rect width="268" height="88" fill="white"/>
</clipPath>
</defs>
</svg>
