<svg width="163" height="53" viewBox="0 0 163 53" fill="none" xmlns="http://www.w3.org/2000/svg">
<g clip-path="url(#clip0_79_84)">
<path d="M2.30037 21.3061V50.9899C2.30037 50.9899 0.668904 26.1301 5.56331 19.6981C12.9457 0.675329 66.7434 -10.8541 58.586 50.2503" stroke="#4C4C4C" stroke-width="5" stroke-linecap="round" stroke-linejoin="round"/>
<path d="M82.2423 22.1101C82.0465 22.5443 78.3105 31.5893 87.9525 35.7782C102.546 42.1218 114.056 29.3462 113.24 24.5221" stroke="#4C4C4C" stroke-width="5" stroke-linecap="round" stroke-linejoin="round"/>
<path d="M159.737 13.6681V50.6523" stroke="#4C4C4C" stroke-width="5" stroke-linecap="round" stroke-linejoin="round"/>
<path d="M159.941 5.62801C161.405 5.62801 162.592 4.45812 162.592 3.01499C162.592 1.57186 161.405 0.401978 159.941 0.401978C158.477 0.401978 157.29 1.57186 157.29 3.01499C157.29 4.45812 158.477 5.62801 159.941 5.62801Z" fill="#4C4C4C" stroke="#4C4C4C" stroke-miterlimit="10"/>
</g>
<defs>
<clipPath id="clip0_79_84">
<rect width="163" height="53" fill="white"/>
</clipPath>
</defs>
</svg>
