<svg width="68" height="68" viewBox="0 0 68 68" fill="none" xmlns="http://www.w3.org/2000/svg">
<circle cx="34" cy="34" r="34" fill="white"/>
<path d="M20.4821 34.5C20.4821 33.6008 20.8377 32.7383 21.4706 32.1025C22.1036 31.4666 22.962 31.1094 23.8571 31.1094C24.7522 31.1094 25.6107 31.4666 26.2436 32.1025C26.8765 32.7383 27.2321 33.6008 27.2321 34.5C27.2321 35.3992 26.8765 36.2617 26.2436 36.8975C25.6107 37.5334 24.7522 37.8906 23.8571 37.8906C22.962 37.8906 22.1036 37.5334 21.4706 36.8975C20.8377 36.2617 20.4821 35.3992 20.4821 34.5ZM30.125 34.5C30.125 33.6008 30.4806 32.7383 31.1135 32.1025C31.7464 31.4666 32.6049 31.1094 33.5 31.1094C34.3951 31.1094 35.2535 31.4666 35.8865 32.1025C36.5194 32.7383 36.875 33.6008 36.875 34.5C36.875 35.3992 36.5194 36.2617 35.8865 36.8975C35.2535 37.5334 34.3951 37.8906 33.5 37.8906C32.6049 37.8906 31.7464 37.5334 31.1135 36.8975C30.4806 36.2617 30.125 35.3992 30.125 34.5ZM43.1428 31.1094C44.0379 31.1094 44.8964 31.4666 45.5293 32.1025C46.1623 32.7383 46.5178 33.6008 46.5178 34.5C46.5178 35.3992 46.1623 36.2617 45.5293 36.8975C44.8964 37.5334 44.0379 37.8906 43.1428 37.8906C42.2477 37.8906 41.3893 37.5334 40.7563 36.8975C40.1234 36.2617 39.7678 35.3992 39.7678 34.5C39.7678 33.6008 40.1234 32.7383 40.7563 32.1025C41.3893 31.4666 42.2477 31.1094 43.1428 31.1094Z" fill="#4B3F3F"/>
</svg>
